<svg xmlns="http://www.w3.org/2000/svg" viewBox="0 0 32.34 28.67"><defs><style>.cls-1{fill:#fff;}</style></defs><title>alert-wrong-password-icon</title><g id="Layer_2" data-name="Layer 2"><g id="Layer_1-2" data-name="Layer 1"><path class="cls-1" d="M32,25,18.32,1.24a2.48,2.48,0,0,0-4.3,0L.33,25a2.48,2.48,0,0,0,2.15,3.72H29.86A2.48,2.48,0,0,0,32,25ZM2.48,26.19,16.17,2.48,29.86,26.19Z"/><path class="cls-1" d="M14.45,11l.71,8.15a1,1,0,0,0,2,0L17.89,11a1.5,1.5,0,0,0,0-.3,1.73,1.73,0,1,0-3.44.3Z"/><circle class="cls-1" cx="16.17" cy="22.01" r="1.42"/></g></g></svg>