<svg xmlns="http://www.w3.org/2000/svg" xmlns:xlink="http://www.w3.org/1999/xlink" viewBox="0 0 60.6 60.6"><defs><style>.cls-1{fill:url(#linear-gradient);}</style><linearGradient id="linear-gradient" y1="30.3" x2="60.6" y2="30.3" gradientUnits="userSpaceOnUse"><stop offset="0" stop-color="#30428b"/><stop offset="1" stop-color="#1a2651"/></linearGradient></defs><title>Asset 45</title><g id="Layer_2" data-name="Layer 2"><g id="Layer_1-2" data-name="Layer 1"><path class="cls-1" d="M25.69,60.6a4.7,4.7,0,0,1-4.57-3.67l-.46-2.13a.57.57,0,0,0-.34-.4.54.54,0,0,0-.22,0,.61.61,0,0,0-.31.09L18,55.62a4.73,4.73,0,0,1-2.53.74A4.6,4.6,0,0,1,12.14,55L5.61,48.47A4.7,4.7,0,0,1,5,42.64l1.17-1.83a.57.57,0,0,0-.36-.87l-2.12-.46A4.69,4.69,0,0,1,0,34.92V25.69a4.71,4.71,0,0,1,3.68-4.57l2.12-.46a.56.56,0,0,0,.36-.86L5,18a4.72,4.72,0,0,1,.63-5.83l6.53-6.53A4.65,4.65,0,0,1,18,5L19.8,6.16a.55.55,0,0,0,.3.09.54.54,0,0,0,.22,0,.57.57,0,0,0,.34-.41l.46-2.12A4.7,4.7,0,0,1,25.69,0h9.23a4.69,4.69,0,0,1,4.56,3.68l.46,2.12a.56.56,0,0,0,.56.45.56.56,0,0,0,.31-.09L42.64,5a4.62,4.62,0,0,1,2.52-.75,4.68,4.68,0,0,1,3.31,1.37L55,12.14A4.7,4.7,0,0,1,55.62,18L54.44,19.8a.56.56,0,0,0,0,.52.55.55,0,0,0,.4.34l2.13.46a4.7,4.7,0,0,1,3.67,4.57v9.23a4.68,4.68,0,0,1-3.67,4.56l-2.13.46a.57.57,0,0,0-.4.34.58.58,0,0,0,0,.53l1.18,1.83A4.69,4.69,0,0,1,55,48.46L48.47,55a4.64,4.64,0,0,1-3.31,1.37,4.69,4.69,0,0,1-2.52-.74l-1.83-1.18a.56.56,0,0,0-.31-.09.59.59,0,0,0-.22,0,.57.57,0,0,0-.34.4l-.46,2.13a4.68,4.68,0,0,1-4.56,3.67Zm4.61-37A6.74,6.74,0,1,0,37,30.3,6.74,6.74,0,0,0,30.3,23.57Z"/></g></g></svg>