<svg xmlns="http://www.w3.org/2000/svg" viewBox="0 0 40.15 36.8"><defs><style>.cls-1{fill:#1a2651;}</style></defs><title>Asset 15</title><g id="Layer_2" data-name="Layer 2"><g id="Layer_1-2" data-name="Layer 1"><path class="cls-1" d="M33.24,29h0a1.23,1.23,0,0,0-1.48.89l-.88,3.57a1.31,1.31,0,0,1-1.57.91L3.4,27.38a1.32,1.32,0,0,1-.92-1.6L5.33,14.86a1.17,1.17,0,0,0-.13-.93A1.21,1.21,0,0,0,3,14.24L.12,25.16a3.78,3.78,0,0,0,2.64,4.58l25.92,6.94a3.81,3.81,0,0,0,.95.12A3.74,3.74,0,0,0,33.25,34l.88-3.59A1.22,1.22,0,0,0,33.24,29Z"/><path class="cls-1" d="M36.42,0h-26A3.74,3.74,0,0,0,6.7,3.73V23a3.44,3.44,0,0,0,.06.63.5.5,0,0,0,0,.17,1.22,1.22,0,0,0,.36.88h0a3.79,3.79,0,0,0,3.33,2.05h26A3.74,3.74,0,0,0,40.15,23V3.73A3.73,3.73,0,0,0,36.42,0ZM29.29,8.88a2.92,2.92,0,0,0-2.21,1L20.86,17.4s0,0-.06,0l-2-2a3,3,0,0,0-4.11,0L9.14,20.9V3.73a1.3,1.3,0,0,1,1.3-1.29h26a1.29,1.29,0,0,1,1.29,1.29v13.4L31.51,9.9a2.64,2.64,0,0,0-2.07-1ZM16.4,17.1a.4.4,0,0,1,.65,0l3,3a1.22,1.22,0,0,0,.92.36h0a1.22,1.22,0,0,0,.88-.44L29,11.49a.43.43,0,0,1,.39-.15h0a.41.41,0,0,1,.28.15l8.06,9.39V23a1.29,1.29,0,0,1-1.29,1.29h-26a1.29,1.29,0,0,1-.89-.36Z"/><path class="cls-1" d="M15.05,5a3.32,3.32,0,1,0,3.31,3.31A3.32,3.32,0,0,0,15.05,5Zm.87,3.31a.88.88,0,1,1-.87-.87A.87.87,0,0,1,15.92,8.34Z"/></g></g></svg>