<svg xmlns="http://www.w3.org/2000/svg" viewBox="0 0 32.7 32.7"><defs><style>.cls-1{fill:#1a2651;}</style></defs><title>bible-icon</title><g id="Layer_2" data-name="Layer 2"><g id="Layer_1-2" data-name="Layer 1"><path class="cls-1" d="M20.52,19.35c.83-.32,1.68-.6,2.54-.84V24A1,1,0,1,0,25,24V18c1-.21,2-.38,3-.5a1,1,0,1,0-.23-1.9c-.92.11-1.85.26-2.76.44v-1.7a1,1,0,1,0-1.91,0v2.15a33.53,33.53,0,0,0-3.22,1,1,1,0,0,0,.68,1.79Z"/><path class="cls-1" d="M32.42,7.94a11.61,11.61,0,0,0-8.15-3.39,8.83,8.83,0,0,0-7.92,4.29A8.81,8.81,0,0,0,8.43,4.55,11.61,11.61,0,0,0,.28,7.94,1,1,0,0,0,0,8.62V27.91a1,1,0,0,0,1,1,31.85,31.85,0,0,1,14.15,3.32l.81.41a1,1,0,0,0,.43.1,1,1,0,0,0,.43-.1l.81-.41a31.85,31.85,0,0,1,14.15-3.32,1,1,0,0,0,1-1V8.62h0a1,1,0,0,0-.28-.68ZM24.27,6.46a9.64,9.64,0,0,1,4.8,1.31,33.91,33.91,0,0,0-11.47,3c.93-2.94,3.89-4.31,6.67-4.31ZM15.1,10.77a33.91,33.91,0,0,0-11.47-3,9.64,9.64,0,0,1,4.8-1.31C11.21,6.46,14.17,7.83,15.1,10.77ZM1.92,27V9.59a32.21,32.21,0,0,1,13.47,3.46V30.2A33.84,33.84,0,0,0,1.92,27Zm28.86,0A33.84,33.84,0,0,0,17.31,30.2V13.05A31.55,31.55,0,0,1,30.78,9.59Z"/><path class="cls-1" d="M16.35,3.83a1,1,0,0,0,1-1V1a1,1,0,1,0-1.92,0V2.87A1,1,0,0,0,16.35,3.83Z"/><path class="cls-1" d="M11.84,3.55A1,1,0,1,0,13.19,2.2L11.28.28a1,1,0,0,0-1.36,0,1,1,0,0,0,0,1.36Z"/><path class="cls-1" d="M20.86,3.55l1.91-1.91A1,1,0,0,0,21.42.28L19.5,2.2a1,1,0,0,0,1.36,1.35Z"/></g></g></svg>