<svg xmlns="http://www.w3.org/2000/svg" viewBox="0 0 126.5 117.46"><defs><style>.cls-1{fill:#fff;}</style></defs><title>bimbingan-pra-nikah-active-icon</title><g id="Layer_2" data-name="Layer 2"><g id="Layer_1-2" data-name="Layer 1"><g id="solid"><path class="cls-1" d="M49.6,9H46.81l-2.09,6.27Z"/><path class="cls-1" d="M49.7,4.52,46.31,0H42.92l3.39,4.52Z"/><path class="cls-1" d="M38.4,1.51l-2.26,3h4.52Z"/><path class="cls-1" d="M87.79,38.76a4.57,4.57,0,0,0,6.46,0L101,32a2.31,2.31,0,0,0,.56-2.39,3.71,3.71,0,0,0-6.14-1.46L92.62,31a2.25,2.25,0,0,1-3.2,0l-2.63-2.63A3.88,3.88,0,0,0,83,27.26a3.72,3.72,0,0,0-2.46,2.39A2.31,2.31,0,0,0,81.07,32Z"/><path class="cls-1" d="M42,9H34.76L38.4,20Z"/><path class="cls-1" d="M84.4,41.76l0,0a2.23,2.23,0,0,0-1.9-.65c-.65.1-1.3.21-1.95.34a2.24,2.24,0,0,0-1.66,3v.05a2.19,2.19,0,0,0,2.5,1.43c.58-.12,1.17-.22,1.76-.3A2.23,2.23,0,0,0,84.4,41.76Z"/><path class="cls-1" d="M104.37,91.26a20.17,20.17,0,0,0,4.06-12.2,2.26,2.26,0,1,1,4.52,0A24.66,24.66,0,0,1,108,94a2.26,2.26,0,0,1-3.62-2.71ZM96.23,97.7a18.4,18.4,0,0,0,2-1,2.26,2.26,0,0,1,2.28,3.91h0A26.32,26.32,0,0,1,98,101.84a2.26,2.26,0,0,1-1.87-4.11l.06,0Z"/><path class="cls-1" d="M76.8,58.73A38.42,38.42,0,0,0,47.36,21.38a2.25,2.25,0,0,0-2.28.83h0a2.23,2.23,0,0,0,1.22,3.55,33.89,33.89,0,1,1-15.85,0,2.25,2.25,0,0,0,1.3-3.57h0a2.26,2.26,0,0,0-2.28-.83A38.4,38.4,0,1,0,76.8,58.73Z"/><path class="cls-1" d="M33.88,0H30.5L27.11,4.52H30.5Z"/><path class="cls-1" d="M49.7,79.06c0,1.12,0,2.24.14,3.35a2.24,2.24,0,0,0,3.4,1.67l0,0a2.26,2.26,0,0,0,1.05-2.14c-.08-1-.12-1.9-.13-2.85A33.74,33.74,0,0,1,66,53.36a2.2,2.2,0,0,0,.75-2.25v0a2.25,2.25,0,0,0-3.61-1.19A38.34,38.34,0,0,0,49.7,79.06Z"/><path class="cls-1" d="M118,54.94A38.56,38.56,0,0,0,98.83,42.18a2.26,2.26,0,0,0-2.2.58l0,0a2.23,2.23,0,0,0,.94,3.71A33.89,33.89,0,1,1,60,98a2.2,2.2,0,0,0-2.79-.71l0,0a2.25,2.25,0,0,0-.88,3.29A38.41,38.41,0,1,0,118,54.94Z"/><path class="cls-1" d="M27.21,9l4.88,6.27L30,9Z"/></g></g></g></svg>