<svg xmlns="http://www.w3.org/2000/svg" viewBox="0 0 172.69 171.72"><defs><style>.cls-1{fill:#1e305e;}</style></defs><title>call-home-icon</title><g id="Layer_2" data-name="Layer 2"><g id="Layer_1-2" data-name="Layer 1"><path class="cls-1" d="M98.17,0c3.15.67,6.34,1.24,9.46,2a86.7,86.7,0,0,1,63.18,65.74,84.46,84.46,0,0,1,.63,32.24,89,89,0,0,1-8.27,25.08c-1,1.93-2.28,3.5-4.61,3.76a5.22,5.22,0,0,1-5.07-2.37c-1.3-1.82-1.15-3.71-.27-5.72,1.9-4.41,4-8.79,5.43-13.35a71.56,71.56,0,0,0,3-27.39,75.55,75.55,0,0,0-36.84-59.36,72.57,72.57,0,0,0-27.69-9.79C77.24,8.22,58.88,12.51,42.5,24.23,26.86,35.43,16.93,50.57,12.57,69.29A70,70,0,0,0,10.82,89a74.88,74.88,0,0,0,18.09,45.71,74.47,74.47,0,0,0,42.68,25.1,72.74,72.74,0,0,0,28.09.23c4.24-.77,8.29-1.76,11.76-4.51a26.87,26.87,0,0,0,10-16.8c.28-1.52.32-3.09.46-4.53A81.74,81.74,0,0,1,42.51,79.93a67.93,67.93,0,0,1-4.07-17.75c-.24-3-.52-5.92-.63-8.88a9.07,9.07,0,0,1,3-7.23c1.84-1.73,3.61-3.53,5.36-5.36C51.53,35.1,60,36.46,64.68,42.38c2.31,2.9,2.71,6.44,3.75,9.78C69,54.07,69.46,56,70,58c1.36,5,.46,9.32-3.38,12.91a17.51,17.51,0,0,1-1.44,1.42c-2.09,1.5-2.31,3.27-1.39,5.65C69.68,93.32,80.27,103.72,96,108.8a1.93,1.93,0,0,0,2.37-.57c1-1.09,2-2.1,3.07-3.12a12,12,0,0,1,11.74-3.25,126.41,126.41,0,0,1,13.07,3.66c7.31,2.63,11.83,12,6.1,19.39a2.56,2.56,0,0,0-.35,1.87,37.67,37.67,0,0,1-21.45,41.58,38.34,38.34,0,0,1-9.06,2.28c-8.7,1.51-17.54,1.19-26.21.53-12.16-.93-23.43-5.36-33.83-11.78A86,86,0,0,1,6.31,118,83.19,83.19,0,0,1,0,83.73a84.42,84.42,0,0,1,18.24-51C28.9,19.16,42.29,9.38,58.71,4c4.87-1.59,10-2.49,15-3.71a2.63,2.63,0,0,0,.54-.3Z"/></g></g></svg>