<svg xmlns="http://www.w3.org/2000/svg" viewBox="0 0 29.79 29.79"><defs><style>.cls-1{fill:#1a2651;}</style></defs><title>clock-icon</title><g id="Layer_2" data-name="Layer 2"><g id="Layer_1-2" data-name="Layer 1"><path class="cls-1" d="M14.9,0A14.9,14.9,0,1,0,29.79,14.9,14.91,14.91,0,0,0,14.9,0Zm0,27.25A12.35,12.35,0,1,1,27.25,14.9,12.36,12.36,0,0,1,14.9,27.25Z"/><path class="cls-1" d="M16.33,14.53a.55.55,0,0,1-.16-.39V6.72a1.28,1.28,0,0,0-2.55,0V14.9a1.27,1.27,0,0,0,.38.9l4.8,4.8a1.27,1.27,0,1,0,1.8-1.8Z"/></g></g></svg>