<svg xmlns="http://www.w3.org/2000/svg" viewBox="0 0 49.9 49.9"><defs><style>.cls-1{fill:#1a2651;}</style></defs><title>data-edit-icon</title><g id="Layer_2" data-name="Layer 2"><g id="Layer_1-2" data-name="Layer 1"><path class="cls-1" d="M49.86,8.59a2.82,2.82,0,0,0-.8-1.44L42.74.84A2.66,2.66,0,0,0,38.92.78L4.48,35.24a8.82,8.82,0,0,0-2.13,3.45L0,48.83a.84.84,0,0,0,.24.81.83.83,0,0,0,.61.26l.2,0,10.1-2.31.05,0a8.79,8.79,0,0,0,3.46-2.12L49.13,11A2.64,2.64,0,0,0,49.86,8.59ZM37.38,5.27l3.09-3.09a.48.48,0,0,1,.67,0l6.58,6.57a.48.48,0,0,1,.14.34.45.45,0,0,1-.14.33l-3.09,3.1a.48.48,0,0,1-.67,0L37.38,5.94h0A.46.46,0,0,1,37.38,5.27Zm5.11,9.39L13.21,44a.4.4,0,0,1-.57,0L6,37.28a.41.41,0,0,1,0-.58L35.24,7.41a.47.47,0,0,1,.33-.14.51.51,0,0,1,.34.14L42.49,14A.46.46,0,0,1,42.49,14.66Zm-40,33,0-.2L4.42,39a.13.13,0,0,1,.09-.1h0a.16.16,0,0,1,.1,0L11,45.26a.12.12,0,0,1,0,.13.12.12,0,0,1-.1.1L2.48,47.42l0,.2Z"/></g></g></svg>