<svg xmlns="http://www.w3.org/2000/svg" viewBox="0 0 28.01 30.79"><defs><style>.cls-1{fill:#1a2651;}</style></defs><title>gender-icon</title><g id="Layer_2" data-name="Layer 2"><g id="Layer_1-2" data-name="Layer 1"><path class="cls-1" d="M28,27.26A14,14,0,0,0,23.92,18a13.89,13.89,0,0,0-5.18-3.28,8.15,8.15,0,1,0-9.47,0A13.89,13.89,0,0,0,4.09,18,14,14,0,0,0,0,27.3a3,3,0,0,0,1,2.32,5.51,5.51,0,0,0,3.66,1.17H23.15a5.29,5.29,0,0,0,3.93-1.32A3.19,3.19,0,0,0,28,27.29Zm-14-11a11.84,11.84,0,0,1,11.66,11v0a.81.81,0,0,1-.26.49,3.37,3.37,0,0,1-2.32.64H4.93c-2.3,0-2.56-.9-2.59-1.08A11.83,11.83,0,0,1,14,16.28ZM8.2,8.14a5.8,5.8,0,1,1,5.8,5.8A5.8,5.8,0,0,1,8.2,8.14Z"/></g></g></svg>