<svg xmlns="http://www.w3.org/2000/svg" viewBox="0 0 102.1 118.81"><defs><style>.cls-1{fill:#1a2651;}</style></defs><title>giving-icon</title><g id="Layer_2" data-name="Layer 2"><g id="Layer_1-2" data-name="Layer 1"><path class="cls-1" d="M69.85,54.9a2.32,2.32,0,1,0-3.28,0A2.33,2.33,0,0,0,69.85,54.9Z"/><circle class="cls-1" cx="38.67" cy="82.8" r="2.32"/><path class="cls-1" d="M60,74.59a9.28,9.28,0,0,0,0-13.12h0a9.28,9.28,0,1,0,0,13.12Zm-9.84-9.84a4.64,4.64,0,1,1,0,6.56A4.64,4.64,0,0,1,50.16,64.75Z"/><path class="cls-1" d="M2.32,118.81h61.9a2.32,2.32,0,1,0,0-4.64H5.92l4.86-10.68H36.4L42,109.05a2.33,2.33,0,0,0,3.29,0l5.55-5.56H91.32l4.86,10.68H61.49a2.32,2.32,0,0,0,0,4.64H99.78a2.32,2.32,0,0,0,2.11-3.28l-7-15.32a2.32,2.32,0,0,0-2.11-1.36H55.43l39-39a2.32,2.32,0,0,0,0-3.29L76.37,38.45l1.34-1.28C88.65,26.7,93.51,13,93.51,2.32A2.32,2.32,0,0,0,91.19,0h-22A2.32,2.32,0,0,0,67,1.56c-1.59,4.6-5.06,9.61-9.76,14.11-9.07,8.68-15.89,16.54-16.94,32.71L12.42,76.23a2.33,2.33,0,0,0,0,3.29L31.76,98.85H9.28a2.32,2.32,0,0,0-2.11,1.36l-7,15.32a2.29,2.29,0,0,0,.16,2.21,2.31,2.31,0,0,0,1.95,1.07ZM60.42,19c2.8-2.68,7.68-7.95,10.34-14.38h18A45.93,45.93,0,0,1,74.5,33.82c-2.16,2.06-5.34,5-6.76,7.63a4.64,4.64,0,1,1-8.17-4.4c2-3.64,5.5-7.06,8.51-9.94a2.32,2.32,0,0,0-3.2-3.36s-19.27,19.3-19.3,19.32c2.21-12,8.61-18.09,14.84-24ZM54.49,40.73a9.28,9.28,0,0,0,17.34,2.92,11,11,0,0,1,1.31-1.86l16.4,16.4L43.59,104.13,17.34,77.88Z"/></g></g></svg>