<svg xmlns="http://www.w3.org/2000/svg" viewBox="0 0 49.62 49.62"><defs><style>.cls-1{fill:#1a2651;}</style></defs><title>help-icon</title><g id="Layer_2" data-name="Layer 2"><g id="Layer_1-2" data-name="Layer 1"><path class="cls-1" d="M24.81,49.62A24.81,24.81,0,1,1,49.62,24.81,24.84,24.84,0,0,1,24.81,49.62Zm0-47.26A22.45,22.45,0,1,0,47.26,24.81,22.47,22.47,0,0,0,24.81,2.36Z"/><rect class="cls-1" x="22.4" y="32.28" width="3.51" height="3.48"/><path class="cls-1" d="M23.42,27.77,22.88,24A9.67,9.67,0,0,0,27,23a3.38,3.38,0,0,0,1.81-3,3.09,3.09,0,0,0-1.18-2.55,4.52,4.52,0,0,0-2.86-.82,7.23,7.23,0,0,0-3,.65,9.08,9.08,0,0,0-1.94,1.27l-1.83-2a11.39,11.39,0,0,1,2.58-1.78,9.72,9.72,0,0,1,4.33-.9,10.21,10.21,0,0,1,3,.42,6.26,6.26,0,0,1,2.22,1.16,5.06,5.06,0,0,1,1.39,1.86,6.38,6.38,0,0,1,.5,2.6,5.85,5.85,0,0,1-.43,2.38,5.09,5.09,0,0,1-1.17,1.65A6.11,6.11,0,0,1,28.6,25a12.43,12.43,0,0,1-2.4.7l-.3.06a.5.5,0,0,0-.39.4l-.28,1.57Z"/></g></g></svg>