<svg xmlns="http://www.w3.org/2000/svg" viewBox="0 0 223.49 265.37"><defs><style>.cls-1{fill:#fff;}</style></defs><title>HOME-BIG-icon</title><g id="Layer_2" data-name="Layer 2"><g id="Layer_1-2" data-name="Layer 1"><path class="cls-1" d="M5.21,135.07c0-9.06.11-18.13.12-27.19,0-2.77-.11-5.54-.27-8.3A53,53,0,0,1,16.81,62.34a77.47,77.47,0,0,1,8-8.54c9.3-8.7,19-16.95,28.79-25.09Q69.29,15.66,85,2.56A8.91,8.91,0,0,1,91.29.07a7.52,7.52,0,0,1,6.78,9,9.24,9.24,0,0,1-2.22,4.1c-.61.66-1.27,1.27-1.94,1.87Q64,41.83,34.17,68.6a39.17,39.17,0,0,0-5.23,5.54A27.64,27.64,0,0,0,23.17,89c-.13,1.64-.2,3.29-.2,4.93q.06,18.87.15,37.75c0,3.52,0,7,0,10.56a14.45,14.45,0,0,0,.15,2.46,4.69,4.69,0,0,0,4.58,4.15,4.73,4.73,0,0,0,5.23-3.63,8,8,0,0,0,.25-1.77c.05-.9,0-1.8,0-2.69q0-23.37,0-46.74a29.14,29.14,0,0,1,.32-5.37c.91-4.74,3.63-8,8.41-9.21a9.19,9.19,0,0,1,5.32.19c3.94,1.31,6.78,3.75,7.89,7.88a10.82,10.82,0,0,1,.32,2.66c.12,14.61.26,29.21.29,43.81,0,4.87-.25,9.74-.43,14.6a25.42,25.42,0,0,1-1,6.42,21.66,21.66,0,0,1-6.7,10.18,30.58,30.58,0,0,1-6.35,4.21l-19.4,9.89c-2.4,1.22-4.78,2.48-7.21,3.65a14.67,14.67,0,0,1-3.16,1.12,4.74,4.74,0,0,1-5.94-3.44,15.35,15.35,0,0,1-.52-3.53c-.09-1.72-.07-3.44-.07-5.16V135.07Z"/><path class="cls-1" d="M220.3,134.85q0,19.88,0,39.76c0,1.27,0,2.55-.16,3.81a10.44,10.44,0,0,1-.5,2.41,4.47,4.47,0,0,1-5.58,3.26,18,18,0,0,1-3.18-1.06c-1.18-.49-2.31-1.08-3.44-1.66q-11.4-5.81-22.78-11.65a30.17,30.17,0,0,1-7.85-5.56,23.06,23.06,0,0,1-6.45-12.58,32.61,32.61,0,0,1-.5-5.58q0-27.07,0-54.14a14.85,14.85,0,0,1,1-5.71c2.61-6.38,9.46-8.84,15.64-5.49a10.26,10.26,0,0,1,5.25,7.7,26.76,26.76,0,0,1,.34,4.47q0,22.9,0,45.83,0,1.91,0,3.81c0,.45,0,.9,0,1.35a5.18,5.18,0,0,0,9.95,1.74,10.8,10.8,0,0,0,.51-2.4,20.93,20.93,0,0,0,0-2.24q0-24.15,0-48.3a34.21,34.21,0,0,0-.71-7.36,27.19,27.19,0,0,0-7.3-13.44c-1.05-1.06-2.17-2.06-3.29-3.06q-30.26-27.15-60.53-54.3a10,10,0,0,1-3.44-5.39,7.19,7.19,0,0,1,2.72-7.38,6.65,6.65,0,0,1,7.36-1,12.65,12.65,0,0,1,3,2q10.41,8.58,20.76,17.21,10.78,9,21.54,18c6.74,5.61,13.38,11.32,19.56,17.55a79.91,79.91,0,0,1,8.21,9.51,51.15,51.15,0,0,1,9.91,32.67c-.52,10.71-.29,21.41-.11,32.12,0,1.72,0,3.44,0,5.17Z"/><path class="cls-1" d="M93.33,130.61l-3.58-1.79q-7.34-3.63-14.69-7.26c-1.21-.6-2.47-1.09-3.66-1.72a4.51,4.51,0,0,1-2.59-5.2c.59-2.39,1.82-4.32,4.52-4.67a5.53,5.53,0,0,1,3.23.74L86,115.39l5.44,2.69c.45.22.94.38,1.34.54.6-.37.44-.86.45-1.28a35.41,35.41,0,0,1,1-8.45,29.38,29.38,0,0,1,3.64-8.17,13.52,13.52,0,0,1,3-3.29,20.1,20.1,0,0,1,25.32.29,12.94,12.94,0,0,1,2.54,2.83,28,28,0,0,1,4.64,13.89c.08,1.27.13,2.54.2,3.75.61.48,1.05.06,1.49-.15l13.69-6.76c.68-.33,1.33-.71,2-1a4.65,4.65,0,0,1,6,2.12,9.2,9.2,0,0,1,.69,1.41,4.7,4.7,0,0,1-2.07,5.83c-.38.23-.79.42-1.2.62l-19.35,9.47c-.47.23-.91.51-1.49.84,0,.8,0,1.62,0,2.43l.06,33.48a22.64,22.64,0,0,1-.07,2.47c-.36,3.46-3.08,5-6.27,4.36a4.47,4.47,0,0,1-3.49-4,14.39,14.39,0,0,1-.15-2.46c0-7.12,0-14.23,0-21.35q0-14.37-.07-28.75a15.16,15.16,0,0,0-.77-5.31,11.17,11.17,0,0,0-8-7.47,4.46,4.46,0,0,0-2.43,0c-4.75,1.31-7.44,4.52-8.45,9.23a16.31,16.31,0,0,0-.3,3.35q0,20.56-.06,41.12c0,3.29,0,6.59,0,9.89a7,7,0,0,1-.54,3.07,4.46,4.46,0,0,1-4.47,2.76,4.57,4.57,0,0,1-4.47-2.81,7.39,7.39,0,0,1-.49-3.08c0-3.29,0-6.59,0-9.88q0-12.48,0-24.94C93.42,132.1,93.37,131.43,93.33,130.61Z"/><path class="cls-1" d="M170,218.67a4,4,0,0,1,.15.81q0,22.35,0,44.77a4.91,4.91,0,0,1-1.11.32c-2.55,0-5.1,0-7.64,0a5.35,5.35,0,0,1-1-.23c-.15-2.34,0-4.65-.07-7s0-4.64,0-7v-7c0-2.28,0-4.57,0-6.86-.94,0-1,.67-1.22,1.09-2.64,4.78-5.25,9.58-7.87,14.38q-2.2,4.05-4.42,8.08c-.24.43-.56.82-1,1.45-4.71-8.43-9.16-16.71-13.9-25.23a5.42,5.42,0,0,0-.4,1c0,.67,0,1.35,0,2,0,7.49,0,15,0,22.47,0,.81,0,1.61-.07,2.37a35.92,35.92,0,0,1-9.55,0,4.12,4.12,0,0,1-.15-.82q0-22.34,0-44.67c.28-.17.47-.37.65-.37,3,0,6,0,9.08,0,.42.69.86,1.37,1.26,2.08l11.89,21.65c.35.64.75,1.25,1.09,1.83a2.39,2.39,0,0,0,.37-.07.47.47,0,0,0,.18-.12c.13-.18.27-.36.38-.55l13.45-24.59A37.79,37.79,0,0,1,170,218.67Z"/><path class="cls-1" d="M81.22,265.37a24.89,24.89,0,0,1-23.9-18.29,21.82,21.82,0,0,1,2.06-16.52c4.07-7.36,10.38-11.8,18.7-12.83a24.45,24.45,0,0,1,27.13,19,22.22,22.22,0,0,1-2,15A24.57,24.57,0,0,1,85,265.05,37,37,0,0,1,81.22,265.37Zm-14.48-24a15.24,15.24,0,0,0,7.75,13.33,13.47,13.47,0,0,0,10.19,1.28,15.08,15.08,0,0,0,1.25-28.61,12.88,12.88,0,0,0-7.71-.55A15,15,0,0,0,66.74,241.33Z"/><path class="cls-1" d="M188,218.59c2-.3,32.87-.34,35.14-.07.66,1.3.31,2.74.34,4.12a17.37,17.37,0,0,1-.17,4.25,7.2,7.2,0,0,1-2.73.27c-6.74,0-13.48,0-20.22,0a3.69,3.69,0,0,0-2.38.34,39.81,39.81,0,0,0,0,8.8,5.65,5.65,0,0,0,2.36.19h18.2c.73,0,1.46.06,2.16.09a33.12,33.12,0,0,1,0,8.68c-.7,0-1.43.09-2.15.09H200.38a6.71,6.71,0,0,0-2.37.17,41.05,41.05,0,0,0,0,10,5.65,5.65,0,0,0,2.36.21H220.6c.82,0,1.63,0,2.57.06a13.16,13.16,0,0,1,.26,4.26,14.41,14.41,0,0,1-.24,4.32,8.22,8.22,0,0,1-1.29.2H189.32c-.36,0-.73-.07-1.23-.12a14.19,14.19,0,0,1-.21-1.52c0-2.62,0-5.24,0-7.86q0-17,0-33.93C187.88,220.34,187.92,219.53,188,218.59Z"/><path class="cls-1" d="M.43,218.63a40.41,40.41,0,0,1,9.13-.09c.55.62.36,1.41.36,2.13,0,4.41,0,8.83,0,13.25a5.08,5.08,0,0,0,.25,2.39c1.8.26,18.65.28,20.7,0a3.25,3.25,0,0,0,.33-2.14c0-4.35,0-8.69,0-13,0-.82.05-1.63.08-2.48,1.62-.63,3.2-.27,4.74-.33s3,0,4.55,0A10,10,0,0,1,41,219.7a13.71,13.71,0,0,1,0,1.57q0,20.22,0,40.43a5,5,0,0,1-.28,2.61,37.41,37.41,0,0,1-9.16,0,3.93,3.93,0,0,1-.3-2.37c0-4.64,0-9.28,0-13.93a4.63,4.63,0,0,0-.31-2.49,4.73,4.73,0,0,0-.8-.15H10.46c-.71.74-.51,1.52-.52,2.24,0,4.72,0,9.44,0,14.15,0,.82,0,1.63-.07,2.48-1.63.61-3.2.27-4.74.32a40.1,40.1,0,0,1-4.76-.07c-.08-.75-.19-1.32-.2-1.9C-.15,247.41,0,220.56.43,218.63Z"/><path class="cls-1" d="M113.46,87.79a9.5,9.5,0,0,1-9.62-9.47A9.57,9.57,0,0,1,123,78.2,9.5,9.5,0,0,1,113.46,87.79Z"/><path class="cls-1" d="M82,101.63A9.38,9.38,0,0,1,72.5,92a9.48,9.48,0,0,1,9.67-9.43,9.53,9.53,0,1,1-.21,19Z"/><path class="cls-1" d="M143.14,101.63a9.53,9.53,0,0,1,.25-19.06,9.53,9.53,0,1,1-.25,19.06Z"/></g></g></svg>