<svg xmlns="http://www.w3.org/2000/svg" viewBox="0 0 34.17 32.56"><defs><style>.cls-1{fill:none;stroke:#1a2651;stroke-linecap:round;stroke-linejoin:round;stroke-width:2px;}.cls-2{fill:#1a2651;}</style></defs><title>home-address-icon</title><g id="Layer_2" data-name="Layer 2"><g id="Layer_1-2" data-name="Layer 1"><path class="cls-1" d="M32.65,14.63,18.14,1.41a1.58,1.58,0,0,0-2.12,0L1.52,14.63a1.58,1.58,0,0,0,1.06,2.74H4.73a.25.25,0,0,1,.25.25V30.7a.86.86,0,0,0,.86.86h8a.86.86,0,0,0,.86-.86V22.82a.25.25,0,0,1,.25-.25h4.34a.25.25,0,0,1,.25.25V30.7a.86.86,0,0,0,.87.86h8a.86.86,0,0,0,.87-.86V17.62a.25.25,0,0,1,.25-.25h2.15a1.58,1.58,0,0,0,1.06-2.74Z"/><path class="cls-2" d="M29,2.9H24.36a.58.58,0,0,0-.39,1l5,4.5a.55.55,0,0,0,.38.15A.58.58,0,0,0,29.89,8V3.77A.87.87,0,0,0,29,2.9Z"/></g></g></svg>