<svg xmlns="http://www.w3.org/2000/svg" xmlns:xlink="http://www.w3.org/1999/xlink" viewBox="0 0 64.33 61.13"><defs><style>.cls-1{fill:url(#linear-gradient);}.cls-2{fill:url(#linear-gradient-2);}</style><linearGradient id="linear-gradient" y1="30.56" x2="64.33" y2="30.56" gradientUnits="userSpaceOnUse"><stop offset="0" stop-color="#30428b"/><stop offset="1" stop-color="#1a2651"/></linearGradient><linearGradient id="linear-gradient-2" x1="45.55" y1="9.46" x2="57.78" y2="9.46" xlink:href="#linear-gradient"/></defs><title>home-active-icon</title><g id="Layer_2" data-name="Layer 2"><g id="Layer_1-2" data-name="Layer 1"><path class="cls-1" d="M63.3,27.26,34.29.83A3.14,3.14,0,0,0,30,.83L1,27.26a3.15,3.15,0,0,0,2.12,5.48h4.3a.5.5,0,0,1,.5.5V59.39a1.74,1.74,0,0,0,1.74,1.74h15.9a1.74,1.74,0,0,0,1.74-1.74V43.65a.5.5,0,0,1,.5-.5h8.68a.5.5,0,0,1,.5.5V59.39a1.73,1.73,0,0,0,1.73,1.74h15.9a1.74,1.74,0,0,0,1.74-1.74V33.24a.5.5,0,0,1,.5-.5h4.3a3.15,3.15,0,0,0,2.12-5.48Z"/><path class="cls-2" d="M55.83,14.82a1.15,1.15,0,0,0,.78.31A1.16,1.16,0,0,0,57.78,14V5.53A1.73,1.73,0,0,0,56.05,3.8H46.72a1.16,1.16,0,0,0-.78,2Z"/></g></g></svg>