<svg xmlns="http://www.w3.org/2000/svg" viewBox="0 0 60 60.01"><defs><style>.cls-1{fill:#1a2651;}</style></defs><title>hotline-icon</title><g id="Layer_2" data-name="Layer 2"><g id="Layer_1-2" data-name="Layer 1"><path class="cls-1" d="M53,21A23.06,23.06,0,0,0,7,21,9.26,9.26,0,0,0,7.7,39.13a1.41,1.41,0,0,0,.58.14,1.15,1.15,0,0,0,.26,0h.12c.19,0,.39,0,.6,0h2a1.36,1.36,0,0,0,1.37-1.36V22.11a1.37,1.37,0,0,0-1.37-1.37H9.79a20.34,20.34,0,0,1,40.42,0H48.76a1.36,1.36,0,0,0-1.36,1.37v15.8a1.36,1.36,0,0,0,1.36,1.36h1.6v1.6c0,7.31-5.59,12.9-13.33,13.4A4.32,4.32,0,1,0,33,60a4.46,4.46,0,0,0,1.14-.15,4.32,4.32,0,0,0,3-2.86c9.3-.53,16-7.28,16-16.13V39a9.38,9.38,0,0,0,4.2-2.4A9.21,9.21,0,0,0,60,30,9.33,9.33,0,0,0,53,21Zm-2.84,2.46h.63a6.53,6.53,0,0,1,.8,13,5.64,5.64,0,0,1-.82,0h-.61ZM2.74,29.22a6.48,6.48,0,0,1,6.5-5.75h.63V36.54H9.26a7.38,7.38,0,0,1-.82,0,6.53,6.53,0,0,1-5.7-7.28ZM34.56,55.68a1.6,1.6,0,1,1-1.6-1.6A1.6,1.6,0,0,1,34.56,55.68Z"/></g></g></svg>