<svg xmlns="http://www.w3.org/2000/svg" viewBox="0 0 78 78"><defs><style>.cls-1{fill:#1a2651;}</style></defs><title>ig-share-icon</title><g id="Layer_2" data-name="Layer 2"><g id="Layer_1-2" data-name="Layer 1"><path class="cls-1" d="M55.15.3a35.17,35.17,0,0,1,5.79.77,25.22,25.22,0,0,1,5,1.6,19.27,19.27,0,0,1,4,2.43,17.29,17.29,0,0,1,3.2,3.36,24.39,24.39,0,0,1,2.36,4.11A23.24,23.24,0,0,1,77,17.37a38.68,38.68,0,0,1,.69,5.48Q78,28.34,78,39t-.3,16q-.61,16.14-13.11,20.87a27.69,27.69,0,0,1-8.38,1.83Q51.65,78,39,78H28.72c-.87,0-2.31,0-4.34-.15A40.28,40.28,0,0,1,20,77.47c-.86-.16-2.08-.38-3.65-.69a14.63,14.63,0,0,1-3.74-1.14,35,35,0,0,1-3-1.75,18.24,18.24,0,0,1-3-2.44,19.57,19.57,0,0,1-2.13-2.51A16.08,16.08,0,0,1,2.82,66C2.36,65,2,64,1.6,63.22a13,13,0,0,1-.84-3.43C.56,58.32.4,57.18.3,56.37s-.17-2.14-.22-4S0,49.26,0,48.45V28.56c0-.86.05-2.3.15-4.34a40.29,40.29,0,0,1,.38-4.34c.16-.86.38-2.06.69-3.58a14.7,14.7,0,0,1,1.14-3.66c.46-.91,1-1.92,1.75-3a17.75,17.75,0,0,1,2.44-3Q12.34.76,23,.3,28.34,0,39,0T55.15.3ZM66.42,66.42a13.68,13.68,0,0,0,3.89-7.92A138.15,138.15,0,0,0,71,41.74V39q0-10.66-.3-15.84a26.07,26.07,0,0,0-.92-6,12.06,12.06,0,0,0-2.13-4.34,14.52,14.52,0,0,0-3.2-2.9,12.61,12.61,0,0,0-4.11-1.75,46.19,46.19,0,0,0-5-.84A52.52,52.52,0,0,0,49.59,7H39l-.15-.15q-10.22,0-15.69.3A27.06,27.06,0,0,0,17,8.07a13,13,0,0,0-4.35,2.06,13.45,13.45,0,0,0-2.89,3.12A12.36,12.36,0,0,0,8,17.37a41.74,41.74,0,0,0-.84,4.95A51.19,51.19,0,0,0,6.86,28V49.28c0,1.07,0,2.49.07,4.27a23.34,23.34,0,0,0,.38,4c.2.91.46,2,.76,3.2a10.46,10.46,0,0,0,1.3,3.12,15.13,15.13,0,0,0,2.06,2.51,13.11,13.11,0,0,0,7.92,3.89A148,148,0,0,0,36.71,71H42.5a130.9,130.9,0,0,0,16.15-.68A13,13,0,0,0,66.42,66.42ZM24.91,24.91A19.22,19.22,0,0,1,39,19a19.34,19.34,0,0,1,14.09,5.79A19.16,19.16,0,0,1,59,39,19.86,19.86,0,0,1,39,59a19.22,19.22,0,0,1-14.09-5.87A19.22,19.22,0,0,1,19,39,19.22,19.22,0,0,1,24.91,24.91Zm4.95,23.23a12.87,12.87,0,0,0,18.28,0,12.87,12.87,0,0,0,0-18.28,12.87,12.87,0,0,0-18.28,0,12.87,12.87,0,0,0,0,18.28ZM56.52,21.48a4.6,4.6,0,0,1,0-6.55,4.65,4.65,0,0,1,7.92,3.28,4.63,4.63,0,0,1-7.92,3.27Z"/></g></g></svg>