<svg xmlns="http://www.w3.org/2000/svg" viewBox="0 0 181.81 166.2"><defs><style>.cls-1{fill:#1a2651;}</style></defs><title>image-upload-icon</title><g id="Layer_2" data-name="Layer 2"><g id="Layer_1-2" data-name="Layer 1"><path class="cls-1" d="M151.63,134.82a3.06,3.06,0,0,0-3.7,2.22l-4.13,16.68a8.61,8.61,0,0,1-8.34,6.4,8.84,8.84,0,0,1-2.22-.29L12.51,127.5a8.8,8.8,0,0,1-6.14-10.67L19.64,65.91a3,3,0,0,0-.31-2.31,3.06,3.06,0,0,0-1.88-1.41,2.86,2.86,0,0,0-.77-.1,3,3,0,0,0-2.92,2.28L.48,115.29a14.91,14.91,0,0,0,10.44,18.08l120.76,32.34a14.54,14.54,0,0,0,3.76.49,14.77,14.77,0,0,0,14.27-11l4.13-16.72A3,3,0,0,0,151.63,134.82Z"/><path class="cls-1" d="M167.05,0H46A14.78,14.78,0,0,0,31.23,14.76v89.82a14.72,14.72,0,0,0,.31,3,3.22,3.22,0,0,0-.15.75,3.07,3.07,0,0,0,.9,2.17c.09.08.21.12.31.2A14.74,14.74,0,0,0,46,119.34H167.05a14.78,14.78,0,0,0,14.76-14.76V14.76A14.78,14.78,0,0,0,167.05,0ZM46,6.09H167.05a8.68,8.68,0,0,1,8.67,8.67V84.33L142.18,45.2a9.82,9.82,0,0,0-7.62-3.83c-.18,0-.37,0-.69,0a10.82,10.82,0,0,0-8.29,3.91l-29,34.82a2.79,2.79,0,0,1-2,1h-.12a2.8,2.8,0,0,1-2-.82L83,70.86a10.88,10.88,0,0,0-15.38,0L37.32,101.13V14.76A8.68,8.68,0,0,1,46,6.09ZM167.05,113.25H46a8.66,8.66,0,0,1-7.6-4.58L71.88,75.19a4.45,4.45,0,0,1,6.79,0l14,14a3.08,3.08,0,0,0,2.27.88h0A3,3,0,0,0,97.13,89l33.13-39.77a4.8,4.8,0,0,1,3.65-1.71,2.67,2.67,0,0,1,.8.11,4.69,4.69,0,0,1,2.84,1.57L175.72,93.7v10.88A8.68,8.68,0,0,1,167.05,113.25Z"/><path class="cls-1" d="M67.47,49.05A12.81,12.81,0,1,0,54.66,36.24,12.83,12.83,0,0,0,67.47,49.05Zm0-19.53a6.72,6.72,0,1,1-6.72,6.72A6.73,6.73,0,0,1,67.47,29.52Z"/></g></g></svg>