<svg xmlns="http://www.w3.org/2000/svg" viewBox="0 0 36.32 31.43"><defs><style>.cls-1{fill:#1a2651;}</style></defs><title>job-icon</title><g id="Layer_2" data-name="Layer 2"><g id="Layer_1-2" data-name="Layer 1"><path class="cls-1" d="M33.22,5.74h-8.5A6.74,6.74,0,0,0,18.43,0h-.52A6.74,6.74,0,0,0,11.6,5.74H3.1A3.1,3.1,0,0,0,0,8.83v19.5a3.1,3.1,0,0,0,3.1,3.1H33.22a3.1,3.1,0,0,0,3.1-3.1V8.83A3.1,3.1,0,0,0,33.22,5.74Zm-19.07,0a4.27,4.27,0,0,1,4-3.24,4.28,4.28,0,0,1,4,3.24ZM12.76,8a1.21,1.21,0,0,0,.33-.07H23.23a1.21,1.21,0,0,0,.33.07,1.23,1.23,0,0,0,.32-.07h9.34a.9.9,0,0,1,.9.9v19.5a.9.9,0,0,1-.9.91H3.1a.9.9,0,0,1-.9-.91V8.83a.9.9,0,0,1,.9-.9h9.34A1.23,1.23,0,0,0,12.76,8Z"/></g></g></svg>