<svg xmlns="http://www.w3.org/2000/svg" viewBox="0 0 52.22 29.33"><defs><style>.cls-1{fill:#1a2651;}</style></defs><title>kuota-icon</title><g id="Layer_2" data-name="Layer 2"><g id="Layer_1-2" data-name="Layer 1"><path class="cls-1" d="M52.21,25.08a10,10,0,0,0-2.93-6.76A10.58,10.58,0,0,0,45.85,16a5.88,5.88,0,1,0-9.54-4.6,6.05,6.05,0,0,0,2.22,4.64,10.54,10.54,0,0,0-2.76,1.61l-.11-.11a13.42,13.42,0,0,0-5.14-3.23l-.11-.07.09-.06a7.79,7.79,0,1,0-8.81,0l.09.1-.11,0a13.42,13.42,0,0,0-5.14,3.23l-.13.1A10.71,10.71,0,0,0,13.68,16a5.87,5.87,0,1,0-9.53-4.6,6.07,6.07,0,0,0,2.21,4.64,10.06,10.06,0,0,0-6.35,9v.22A2.49,2.49,0,0,0,.65,27a2.76,2.76,0,0,0,2.06.74h10c.46,1.48,2.53,1.6,2.64,1.61H37.12a2.35,2.35,0,0,0,2.3-1.61H49.5A2.75,2.75,0,0,0,51.56,27a2.54,2.54,0,0,0,.66-1.63Zm-14-13.65a3.95,3.95,0,1,1,3.95,4A3.95,3.95,0,0,1,38.24,11.43Zm3.95,5.89a8.15,8.15,0,0,1,8.08,7.79l0,.25a.71.71,0,0,1-.16.41.94.94,0,0,1-.71.23H39.57a13.59,13.59,0,0,0-2.51-6.82A8.11,8.11,0,0,1,42.19,17.32Zm-4.54,9.46a.66.66,0,0,1-.16.44.91.91,0,0,1-.71.24H15.41a.91.91,0,0,1-.71-.24.67.67,0,0,1-.15-.5,11.56,11.56,0,0,1,23.1,0v.07Zm-17.37-19a5.82,5.82,0,1,1,5.82,5.82A5.83,5.83,0,0,1,20.28,7.79ZM15.14,19.2h0A13.46,13.46,0,0,0,12.63,26H2.8a.94.94,0,0,1-.71-.23.61.61,0,0,1-.16-.41v-.25A8.15,8.15,0,0,1,10,17.32a8,8,0,0,1,5.11,1.85A0,0,0,0,1,15.14,19.2ZM6.08,11.43a3.95,3.95,0,1,1,3.95,4A3.95,3.95,0,0,1,6.08,11.43Z"/></g></g></svg>