<svg xmlns="http://www.w3.org/2000/svg" viewBox="0 0 69.47 60.55"><defs><style>.cls-1{fill:#999;}</style></defs><title>livechat-inactive-icon</title><g id="Layer_2" data-name="Layer 2"><g id="Layer_1-2" data-name="Layer 1"><path class="cls-1" d="M58.9,54.07h-.21c-2.73-.3-7.21-2.42-13.33-6.3a1,1,0,0,0-.53-.16h-.11a34,34,0,0,1-3.91.22C25,47.83,12.15,37.1,12.15,23.92S25,0,40.81,0,69.47,10.73,69.47,23.92c0,7.06-3.69,13.72-10.14,18.26a1,1,0,0,0-.4.66c-.62,4,1.59,8.11,1.68,8.28a1.94,1.94,0,0,1-.06,2.06A2,2,0,0,1,58.9,54.07Zm-14-9a3.36,3.36,0,0,1,1.79.52,63.83,63.83,0,0,0,9.08,5,1,1,0,0,0,.38.07,1,1,0,0,0,.66-.26,1,1,0,0,0,.27-1,15.4,15.4,0,0,1-.67-7,3.36,3.36,0,0,1,1.37-2.19c5.8-4.06,9.12-10,9.12-16.2,0-11.77-11.7-21.34-26.08-21.34S14.73,12.15,14.73,23.92s11.7,21.33,26.08,21.33a32.78,32.78,0,0,0,3.7-.21Z"/><path class="cls-1" d="M8.75,60.55a.14.14,0,0,1-.12-.07.15.15,0,0,1,0-.17c.12-.21,3-5.33,1.73-10.37a1,1,0,0,0-.41-.56C3.62,45.16,0,38.9,0,32.21A20.12,20.12,0,0,1,7.47,16.93l0,7.77a23.7,23.7,0,0,0,2.66,10.89,27.49,27.49,0,0,0,7,8.64,34.83,34.83,0,0,0,21.81,7.7,31.48,31.48,0,0,1-12.09,2.38A32.77,32.77,0,0,1,22.53,54H22.4a1,1,0,0,0-.53.15c-6.07,3.89-10.6,6.1-13.1,6.38ZM4.12,27.24a1,1,0,0,0-1,.72,15.79,15.79,0,0,0-.59,4.25c0,5.84,3.23,11.34,8.86,15.07a3.32,3.32,0,0,1,1.39,1.95,14.73,14.73,0,0,1,.29,5.3,1,1,0,0,0,1,1.1,1.08,1.08,0,0,0,.47-.11c1.79-1,3.8-2.16,6-3.57.14-.08.28-.16.43-.23a1,1,0,0,0,.58-.86A1,1,0,0,0,21,50a35.47,35.47,0,0,1-5.55-3.74,30.12,30.12,0,0,1-7.68-9.46A26.55,26.55,0,0,1,5.09,28.1a1,1,0,0,0-.9-.85Z"/><path class="cls-1" d="M32.82,26.89a3.61,3.61,0,1,1,3.61-3.6,3.53,3.53,0,0,1-1.06,2.54A3.58,3.58,0,0,1,32.82,26.89Z"/><path class="cls-1" d="M48.8,26.89a3.61,3.61,0,1,1,3.61-3.6A3.61,3.61,0,0,1,48.8,26.89Z"/></g></g></svg>