<svg xmlns="http://www.w3.org/2000/svg" viewBox="0 0 29.83 37.12"><defs><style>.cls-1{fill:#1a2651;}</style></defs><title>location-pin-icon</title><g id="Layer_2" data-name="Layer 2"><g id="Layer_1-2" data-name="Layer 1"><path class="cls-1" d="M14.91,21.74a6.83,6.83,0,1,0-6.82-6.83A6.83,6.83,0,0,0,14.91,21.74Zm0-11a4.21,4.21,0,1,1-4.2,4.2A4.21,4.21,0,0,1,14.91,10.71Z"/><path class="cls-1" d="M14.91,0A14.93,14.93,0,0,0,0,14.91v.42c0,4.16,2.4,9,7.12,14.45a61.06,61.06,0,0,0,7,6.81l.51.41a.47.47,0,0,0,.31.12.49.49,0,0,0,.32-.12l.5-.41a60.31,60.31,0,0,0,7-6.81c4.73-5.42,7.13-10.29,7.13-14.45v-.42A14.93,14.93,0,0,0,14.91,0Zm0,2.62a12.31,12.31,0,0,1,12.3,12.29v.42c0,7-8.53,15.22-12.19,18.43l-.11.1-.1-.1C11.14,30.55,2.62,22.33,2.62,15.33v-.42A12.3,12.3,0,0,1,14.91,2.62Z"/></g></g></svg>