<svg xmlns="http://www.w3.org/2000/svg" viewBox="0 0 43.93 43.78"><defs><style>.cls-1{fill:#1a2651;}</style></defs><title>logout-icon</title><g id="Layer_2" data-name="Layer 2"><g id="Layer_1-2" data-name="Layer 1"><path class="cls-1" d="M21.89,41.18H5a2.45,2.45,0,0,1-2.45-2.45V5A2.45,2.45,0,0,1,5,2.6H21.89a1.31,1.31,0,0,0,1.3-1.3A1.3,1.3,0,0,0,21.89,0H5A5,5,0,0,0,0,5V38.73a5.05,5.05,0,0,0,5,5.05H21.89a1.3,1.3,0,1,0,0-2.6Z"/><path class="cls-1" d="M43.54,21,32.16,9.73a1.3,1.3,0,0,0-2.21.94,1.26,1.26,0,0,0,.39.91l9.13,9H16.27a1.3,1.3,0,1,0,0,2.6h23.2l-9.13,9a1.29,1.29,0,0,0,0,1.83,1.29,1.29,0,0,0,1.84,0L43.54,22.81a1.29,1.29,0,0,0,.39-.92A1.31,1.31,0,0,0,43.54,21Z"/></g></g></svg>