<svg xmlns="http://www.w3.org/2000/svg" viewBox="0 0 165.74 57.63"><defs><style>.cls-1{fill:#1a2651;}</style></defs><title>parents-icon</title><g id="Layer_2" data-name="Layer 2"><g id="Layer_1-2" data-name="Layer 1"><path class="cls-1" d="M121.47,57.63A28.59,28.59,0,0,1,93,31.85,1,1,0,0,0,92,31H73.79a1,1,0,0,0-1,.89A28.75,28.75,0,0,1,47,57.5c-.9.08-1.82.13-2.74.13A28.57,28.57,0,0,1,15.74,31.85a1,1,0,0,0-1-.89H2.14a2.15,2.15,0,0,1,0-4.29H14.75a1,1,0,0,0,1-.9A28.74,28.74,0,0,1,41.57.13C42.47,0,43.39,0,44.31,0A28.58,28.58,0,0,1,72.8,25.77a1,1,0,0,0,1,.9H92a1,1,0,0,0,1-.9A28.76,28.76,0,0,1,118.77.13c.9-.09,1.82-.13,2.74-.13A28.57,28.57,0,0,1,150,25.77a1,1,0,0,0,1,.9h12.6a2.15,2.15,0,0,1,0,4.29H151a1,1,0,0,0-1,.89A28.74,28.74,0,0,1,124.2,57.5C123.3,57.58,122.38,57.63,121.47,57.63ZM120.84,4.4a24.41,24.41,0,1,0,1.3,0,1,1,0,0,0-.65-.24h-.13A1,1,0,0,0,120.84,4.4ZM43.6,4.4a24.42,24.42,0,1,0,1.3,0,1,1,0,0,0-.64-.24h-.13A1.1,1.1,0,0,0,43.6,4.4Z"/><path class="cls-1" d="M60,27.87a2.14,2.14,0,0,1-2.14-2.14A10.37,10.37,0,0,0,47.49,15.37a2.14,2.14,0,1,1,0-4.28A14.66,14.66,0,0,1,62.13,25.73,2.15,2.15,0,0,1,60,27.87Z"/><path class="cls-1" d="M137,27.87a2.15,2.15,0,0,1-2.15-2.14,10.36,10.36,0,0,0-10.34-10.36,2.14,2.14,0,1,1,0-4.28,14.65,14.65,0,0,1,14.63,14.64A2.14,2.14,0,0,1,137,27.87Z"/></g></g></svg>