<svg xmlns="http://www.w3.org/2000/svg" viewBox="0 0 31.15 41.27"><defs><style>.cls-1{fill:#1a2651;}</style></defs><title>pastor-icon</title><g id="Layer_2" data-name="Layer 2"><g id="Layer_1-2" data-name="Layer 1"><path class="cls-1" d="M15.58,10.92a5.46,5.46,0,1,0-5.46-5.46A5.46,5.46,0,0,0,15.58,10.92Zm0-8.43a3,3,0,1,1-3,3A3,3,0,0,1,15.58,2.49Z"/><path class="cls-1" d="M29.91,38.78h-6l5.48-20.35a1.27,1.27,0,0,0-.21-1.08,1.23,1.23,0,0,0-1-.49H24.41v-.07a4.9,4.9,0,0,0-4.79-5H11.53a4.9,4.9,0,0,0-4.79,5v.07H2.93a1.26,1.26,0,0,0-1.2,1.57L7.21,38.78h-6a1.25,1.25,0,0,0,0,2.49H29.91a1.25,1.25,0,0,0,0-2.49Zm-20.13,0L4.55,19.35H26.6L21.37,38.78Zm-.55-22a2.41,2.41,0,0,1,2.3-2.5h8.09a2.41,2.41,0,0,1,2.3,2.5v.07H9.23Z"/></g></g></svg>