<svg xmlns="http://www.w3.org/2000/svg" viewBox="0 0 77.44 102.05"><defs><style>.cls-1{fill:#1a2651;}</style></defs><title>pembaptisan-inactive-icon</title><g id="Layer_2" data-name="Layer 2"><g id="Layer_1-2" data-name="Layer 1"><path class="cls-1" d="M76.87,39.16,67,4.42A5.49,5.49,0,0,0,61.56,0h-2A18.76,18.76,0,0,0,43.52,9.16L37.27,19.75l-3.72-8.54A18.66,18.66,0,0,0,16.44,0h-.56a5.49,5.49,0,0,0-5.39,4.42L.57,39.16a14.63,14.63,0,0,0,10.2,18.12l3.5.95v41.82a2,2,0,0,0,2,2H61.18a2,2,0,0,0,2-2V58.23l3.5-.95a14.63,14.63,0,0,0,10.2-18.12ZM47,11.19A14.72,14.72,0,0,1,59,4c0,7-.16,31.11-3.83,43.16h-6l-10-22.9ZM29.89,12.8l15,34.36H22.25c-3.65-12-3.86-35.85-3.83-43A14.65,14.65,0,0,1,29.89,12.8ZM5.36,48.39a10.59,10.59,0,0,1-1-8.13l10-34.83c0-.07,0-.14.05-.2a.5.5,0,0,1,0-.12c0,8.33.32,30.91,4,43.1a8.2,8.2,0,0,0-4.06,5.92l-2.53-.7a10.54,10.54,0,0,1-6.46-5ZM59.19,98.06h-9.3V82.65a2,2,0,0,0-4,0V98.06H18.25V55.31a4.18,4.18,0,0,1,4.18-4.17H26v6.38a2,2,0,0,0,4,0V51.14h2.63V65.87a2,2,0,1,0,4,0V51.14h9.3V64.63a2,2,0,0,0,4,0V51.14H55a4.18,4.18,0,0,1,4.18,4.17ZM72.08,48.39a10.53,10.53,0,0,1-6.47,5l-2.52.69A8.19,8.19,0,0,0,59,48.22C62.7,36,63,13.43,63,5.11a.43.43,0,0,1,0,.12,1.94,1.94,0,0,0,.05.2L73,40.26a10.59,10.59,0,0,1-1,8.13Z"/><path class="cls-1" d="M47.89,75.67a2,2,0,1,1,2-1.6,2,2,0,0,1-2,1.6Z"/></g></g></svg>