<svg xmlns="http://www.w3.org/2000/svg" viewBox="0 0 42.77 42.77"><defs><style>.cls-1{fill:#1a2651;stroke:#1a2651;stroke-miterlimit:10;stroke-width:0.75px;}</style></defs><title>pencil-edit-icon</title><g id="Layer_2" data-name="Layer 2"><g id="Layer_1-2" data-name="Layer 1"><path class="cls-1" d="M2.35,33.13v0a7.4,7.4,0,0,1,1.77-2.86L33.37,1A2.1,2.1,0,0,1,35.23.41,2.12,2.12,0,0,1,36.37,1L41.74,6.4a2.12,2.12,0,0,1,.62,1.13,2.07,2.07,0,0,1-.57,1.86L12.55,38.65a7.3,7.3,0,0,1-2.87,1.76h0l-8.58,2a.57.57,0,0,1-.68-.68Zm0,7.5L9.53,39a.28.28,0,0,0,.14-.48l-5.4-5.4a.28.28,0,0,0-.48.14L2.15,40.42A.17.17,0,0,0,2.35,40.63ZM5.14,32l5.68,5.66a.51.51,0,0,0,.72,0L36.4,12.77a.58.58,0,0,0,0-.81L30.81,6.37a.58.58,0,0,0-.81,0L5.14,31.24A.52.52,0,0,0,5.14,32ZM31.82,5.37,37.41,11a.58.58,0,0,0,.81,0l2.62-2.63a.57.57,0,0,0,0-.8L35.25,1.93a.58.58,0,0,0-.81,0L31.82,4.56A.56.56,0,0,0,31.82,5.37Z"/></g></g></svg>