<svg xmlns="http://www.w3.org/2000/svg" viewBox="0 0 109.71 100.12"><defs><style>.cls-1{fill:#fff;}</style></defs><title>penyerahan-anak-active-icon</title><g id="Layer_2" data-name="Layer 2"><g id="Layer_1-2" data-name="Layer 1"><path class="cls-1" d="M42.52,55a1.7,1.7,0,0,1-1.53-1,5.48,5.48,0,0,0-10,0,1.7,1.7,0,0,1-1.54,1H28.6a1.66,1.66,0,0,1-1.38-.73A1.6,1.6,0,0,1,27,52.71a9.61,9.61,0,0,1,17.93,0,1.63,1.63,0,0,1-.18,1.51A1.68,1.68,0,0,1,43.4,55Z"/><path class="cls-1" d="M80.23,55a1.7,1.7,0,0,1-1.54-1,5.48,5.48,0,0,0-10,0,1.7,1.7,0,0,1-1.53,1h-.88a1.67,1.67,0,0,1-1.39-.73,1.63,1.63,0,0,1-.18-1.51,9.61,9.61,0,0,1,17.93,0,1.6,1.6,0,0,1-.18,1.51,1.66,1.66,0,0,1-1.38.73Z"/><path class="cls-1" d="M54.85,80.75A17.19,17.19,0,0,1,42,74.93a1.72,1.72,0,0,1-.41-1.4,1.55,1.55,0,0,1,.79-1.16l.71-.43a1.61,1.61,0,0,1,.83-.22,1.75,1.75,0,0,1,1.27.57,13,13,0,0,0,19.35,0,1.76,1.76,0,0,1,1.27-.58,1.62,1.62,0,0,1,.83.23l.71.42a1.59,1.59,0,0,1,.79,1.17,1.72,1.72,0,0,1-.41,1.4A17.19,17.19,0,0,1,54.85,80.75Z"/><path class="cls-1" d="M54.85,100.12a45.13,45.13,0,0,1-43.06-31.3l-.22-.69L10.86,68a13.39,13.39,0,0,1,0-26.29l.71-.13.22-.69a45.08,45.08,0,0,1,21.29-25.7l2.44-1.34L32.88,13A15,15,0,0,1,23,2.05,1.7,1.7,0,0,1,23.31.62,1.68,1.68,0,0,1,24.61,0h.83a1.7,1.7,0,0,1,1.63,1.37,10.8,10.8,0,0,0,10.5,8.22h4.5L40.63,7.65a14.81,14.81,0,0,1-2.57-5.6A1.7,1.7,0,0,1,38.39.62,1.68,1.68,0,0,1,39.69,0h.83a1.72,1.72,0,0,1,1.64,1.37A10.78,10.78,0,0,0,52.65,9.59h2.2a45.13,45.13,0,0,1,43.07,31.3l.22.69.71.13a13.39,13.39,0,0,1,0,26.29l-.71.13-.22.69A45.13,45.13,0,0,1,54.85,100.12ZM13.47,45.61a9.58,9.58,0,0,0-6.22,2.33,9.2,9.2,0,0,0-3.08,7.68,9.47,9.47,0,0,0,9.3,8.48,1.69,1.69,0,0,1,1.61,1.23l.07.29a41.14,41.14,0,0,0,79.4,0l.08-.29a1.68,1.68,0,0,1,1.58-1.23h.3a8.87,8.87,0,0,0,8.21-5.24A9.38,9.38,0,0,0,102.5,48a9.59,9.59,0,0,0-6.26-2.36,1.69,1.69,0,0,1-1.61-1.22l-.08-.3A40.86,40.86,0,0,0,70.92,17l-3-1.28,1.44,2.93A16.12,16.12,0,0,1,55.61,41.83h-.75A16.2,16.2,0,0,1,39.06,29a1.75,1.75,0,0,1,.35-1.45,1.62,1.62,0,0,1,1.27-.61h.84a1.67,1.67,0,0,1,1.62,1.35A12.06,12.06,0,0,0,54.85,37.7a12,12,0,0,0,12-12.51A12.28,12.28,0,0,0,54.52,13.73,41.33,41.33,0,0,0,15.15,44.09l-.07.29a1.68,1.68,0,0,1-1.58,1.23Z"/></g></g></svg>