<svg xmlns="http://www.w3.org/2000/svg" viewBox="0 0 29.88 30.68"><defs><style>.cls-1{fill:#1a2651;}</style></defs><title>phone-number-icon</title><g id="Layer_2" data-name="Layer 2"><g id="Layer_1-2" data-name="Layer 1"><path class="cls-1" d="M28.85,22.89l-5.75-4a2.49,2.49,0,0,0-3.26.45l-1.77,2.15-.32-.19a18.68,18.68,0,0,1-4.84-4,18.94,18.94,0,0,1-3.78-5L9,11.93l2.22-1.66A2.43,2.43,0,0,0,11.8,7L8,1.11A2.18,2.18,0,0,0,7.71.69,2.49,2.49,0,0,0,4.8.3L2.34,1.71a4.15,4.15,0,0,0-2,2.42c-1,3.37-.49,9.18,7.71,17.77,5.56,5.82,10.66,8.78,15.17,8.78a9.14,9.14,0,0,0,2.23-.27A4.14,4.14,0,0,0,28,28.57l1.53-2.4A2.42,2.42,0,0,0,28.85,22.89ZM7.55,10a2.39,2.39,0,0,0-.71,3.06l.16.32A21.09,21.09,0,0,0,11.17,19l.76.79a19.26,19.26,0,0,0,4.62,3.63l.31.18A2.45,2.45,0,0,0,20,23l1.77-2.15,5.75,4L26,27.3a1.74,1.74,0,0,1-1.06.78,8.66,8.66,0,0,1-5.16-.52c-3-1.14-6.35-3.6-9.91-7.32S4,13.07,3,10a8.67,8.67,0,0,1-.28-5.18,1.75,1.75,0,0,1,.84-1L6,2.39H6L9.77,8.34Z"/></g></g></svg>