<svg xmlns="http://www.w3.org/2000/svg" viewBox="0 0 75.45 93.55"><defs><style>.cls-1{fill:#1a2651;}</style></defs><title>PIC-Comission-contanct</title><g id="Layer_2" data-name="Layer 2"><g id="Layer_1-2" data-name="Layer 1"><path class="cls-1" d="M73.18,0h-65A2.27,2.27,0,0,0,5.91,2.27V15H2.27a2.27,2.27,0,0,0,0,4.54H5.91V29.73H2.27a2.27,2.27,0,0,0,0,4.54H5.91V44.5H2.27a2.27,2.27,0,1,0,0,4.54H5.91V59.28H2.27a2.27,2.27,0,0,0,0,4.54H5.91V74.05H2.27a2.27,2.27,0,1,0,0,4.54H5.91V91.28a2.27,2.27,0,0,0,2.27,2.27h65a2.27,2.27,0,0,0,2.27-2.27v-89A2.27,2.27,0,0,0,73.18,0ZM70.91,89H10.45V78.59h3.64a2.27,2.27,0,1,0,0-4.54H10.45V63.82h3.64a2.27,2.27,0,0,0,0-4.54H10.45V49h3.64a2.27,2.27,0,1,0,0-4.54H10.45V34.27h3.64a2.27,2.27,0,0,0,0-4.54H10.45V19.5h3.64a2.27,2.27,0,0,0,0-4.54H10.45V4.54H70.91Z"/><path class="cls-1" d="M23.64,66a2.27,2.27,0,0,0,4.54,0c0-7.6,4.67-15.46,12.5-15.46S53.18,58.38,53.18,66a2.27,2.27,0,1,0,4.54,0c0-7.3-3.47-14.22-8.86-17.63L48.28,48l.53-.44a12.62,12.62,0,1,0-16.25,0l.52.44-.58.36C27.12,51.76,23.64,58.68,23.64,66Zm9-28.07A8.07,8.07,0,1,1,40.68,46,8.08,8.08,0,0,1,32.61,37.91Z"/></g></g></svg>