<svg xmlns="http://www.w3.org/2000/svg" viewBox="0 0 109.53 125.69"><defs><style>.cls-1{fill:#17264e;}</style></defs><title>rehobot-crisis-center</title><g id="Layer_2" data-name="Layer 2"><g id="Layer_1-2" data-name="Layer 1"><g id="MF5vGq.tif"><path class="cls-1" d="M54.64,120.87c14.54-.16,27-5.37,36.84-16.05A48.38,48.38,0,0,0,104.42,76C106,60,100.76,46.51,89.73,35.15A48.29,48.29,0,0,0,73.47,24.54c-.88-.38-1.71-.79-1.94-1.75a2.4,2.4,0,0,1,.52-2.55A2.73,2.73,0,0,1,75,20,47,47,0,0,1,84.69,25a53.92,53.92,0,0,1,23,32.14,52.39,52.39,0,0,1-4.49,39c-8.68,16.37-22.38,26.2-40.74,28.89-16.18,2.38-30.69-1.91-43.21-12.5A52.31,52.31,0,0,1,.66,79.18C-2.19,59.43,4.21,42.87,18.74,29.44a50.5,50.5,0,0,1,15.81-9.55c1.38-.55,2.72-.62,3.49,1,.68,1.45.19,2.74-1.55,3.43A50.62,50.62,0,0,0,19.13,35.7,50.51,50.51,0,0,0,4.66,71.89,49.71,49.71,0,0,0,16.8,103.51c7.88,9.17,17.9,14.49,29.65,16.79.32.07.65,0,1,.1A44.61,44.61,0,0,0,54.64,120.87Z"/><path class="cls-1" d="M55.14,53.09H52.4c-3,0-3.53-.52-4-3.53-1.88-11.41-3.83-22.82-5.69-34.23-.83-5.09.56-9.46,4.78-12.63A12.17,12.17,0,0,1,60.9,1.46a12,12,0,0,1,7,11.7c-.1,3.28-1,6.55-1.5,9.82q-2.28,13.65-4.6,27.29c-.39,2.35-1,2.81-3.38,2.82Z"/><path class="cls-1" d="M15.54,70.72C16.08,55,22.89,43,36.9,35.29a3.18,3.18,0,0,1,2.78-.52,2.29,2.29,0,0,1,1.52,2.1,2.72,2.72,0,0,1-1.85,2.52,37.58,37.58,0,0,0-9.45,6.87,35.21,35.21,0,0,0-4.54,43.55c6,9.11,14.33,14.6,25,16,16.93,2.15,32.42-7.49,37.67-23.15,4.72-14.09,1.6-26.56-8.77-37.17a33.27,33.27,0,0,0-8.6-6.06c-1.43-.75-2.39-1.67-1.65-3.4.64-1.48,2-1.81,3.81-.86C84.16,41,91.2,50.29,93.75,62.67a39.92,39.92,0,0,1-33.54,47.82C48.94,112.1,38.79,108.88,30,101.7,21.66,95,17.23,86,15.6,75.6a3.68,3.68,0,0,1-.06-.58C15.53,73.59,15.54,72.15,15.54,70.72Z"/><path class="cls-1" d="M29.93,70.81a24.58,24.58,0,0,1,9.24-19.42C40.86,50,42.11,50,43.12,51.2s.83,2.55-.9,4a20.34,20.34,0,0,0-2.48,29.11A20.7,20.7,0,0,0,61.3,90.16,20.12,20.12,0,0,0,75.07,72.42a19.74,19.74,0,0,0-7.42-17.23c-1.56-1.3-1.88-2.64-.93-3.85s2.44-1.38,4.07,0C78.7,58.31,81.91,67,79.26,77.18S69.56,93.87,59,95.71a25.06,25.06,0,0,1-28.65-20A23.32,23.32,0,0,1,29.93,70.81Z"/><path class="cls-1" d="M65.31,70.86A10.24,10.24,0,1,1,55,60.53,10.41,10.41,0,0,1,65.31,70.86Z"/></g></g></g></svg>