<svg xmlns="http://www.w3.org/2000/svg" viewBox="0 0 60.38 60.38"><defs><style>.cls-1{fill:#1a2651;}</style></defs><title>send-msg-icon</title><g id="Layer_2" data-name="Layer 2"><g id="Layer_1-2" data-name="Layer 1"><path class="cls-1" d="M35.34,60.38A1.5,1.5,0,0,1,34,59.31L26.55,34.58a1.12,1.12,0,0,0-.74-.74L1.08,26.42a1.51,1.51,0,0,1-.14-2.84L58.31.1A1.61,1.61,0,0,1,58.7,0h.23a1,1,0,0,1,.24,0h.08l.3.13a1.61,1.61,0,0,1,.4.28,1.14,1.14,0,0,1,.23.31l0,.1a2.11,2.11,0,0,1,.13.34s0,0,0,.05a1.92,1.92,0,0,1,0,.35V1.7a1.54,1.54,0,0,1-.09.37S36.81,59.45,36.81,59.45a1.49,1.49,0,0,1-1.4.93Zm16.22-49a1.1,1.1,0,0,0-.78.33l-21,21a1.11,1.11,0,0,0-.28,1.09l5.26,17.53a1.11,1.11,0,0,0,1,.78h0a1.11,1.11,0,0,0,1-.68L52.58,12.93a1.11,1.11,0,0,0-.41-1.33A1.07,1.07,0,0,0,51.56,11.41ZM47.87,7.72a1,1,0,0,0-.41.09L8.91,23.58a1.09,1.09,0,0,0-.68,1.07,1.08,1.08,0,0,0,.78,1L26.53,30.9a1.19,1.19,0,0,0,.32.05,1.09,1.09,0,0,0,.77-.32l21-21a1.1,1.1,0,0,0,.14-1.39A1.12,1.12,0,0,0,47.87,7.72Z"/></g></g></svg>