<svg xmlns="http://www.w3.org/2000/svg" viewBox="0 0 115 64.54"><defs><style>.cls-1{fill:none;}.cls-2{fill:#1a2651;stroke:#1a2651;stroke-miterlimit:10;}</style></defs><title>service-icon</title><g id="Layer_2" data-name="Layer 2"><g id="Layer_1-2" data-name="Layer 1"><path class="cls-1" d="M22.05,34.4a9.25,9.25,0,1,0-9.25-9.25A9.26,9.26,0,0,0,22.05,34.4Z"/><path class="cls-1" d="M70.85,17.12A13.38,13.38,0,1,0,57.47,30.49,13.39,13.39,0,0,0,70.85,17.12Z"/><path class="cls-1" d="M92.94,34.4a9.25,9.25,0,1,0-9.24-9.25A9.26,9.26,0,0,0,92.94,34.4Z"/><path class="cls-1" d="M28.29,57.82a29.07,29.07,0,0,1,5-14.48c-.27.38-.53.75-.76,1.1A28.61,28.61,0,0,0,28.29,57.82Z"/><path class="cls-2" d="M6.11,57.82a2.59,2.59,0,0,1-2-.69,2,2,0,0,1-.49-1.29l0-.55A18.53,18.53,0,0,1,22.05,37.56a18.35,18.35,0,0,1,11.62,4.22.6.6,0,0,1,.1.81c-.18.25-.34.5-.51.75,1.44-2,3.31-4.06,3.31-4.06a.6.6,0,0,1-.81,0,21.49,21.49,0,0,0-5.84-3.44.59.59,0,0,1-.15-1,12.55,12.55,0,0,0,4.69-9.71,12.41,12.41,0,1,0-20.13,9.71.59.59,0,0,1-.15,1A21.55,21.55,0,0,0,.52,55.25l0,.48A4.87,4.87,0,0,0,1.78,59a5.53,5.53,0,0,0,4.15,1.48H28.46l-.17-2.69ZM12.8,25.15a9.25,9.25,0,1,1,9.25,9.25A9.26,9.26,0,0,1,12.8,25.15Z"/><path class="cls-1" d="M92.94,15.91a9.25,9.25,0,1,0,9.25,9.24A9.25,9.25,0,0,0,92.94,15.91Z"/><path class="cls-1" d="M70.85,17.12A13.38,13.38,0,1,0,57.47,30.49,13.39,13.39,0,0,0,70.85,17.12Z"/><path class="cls-1" d="M83.48,58.82a26,26,0,0,0-52,0v.12A2,2,0,0,0,32,60.33a2.55,2.55,0,0,0,2,.69H81a2.55,2.55,0,0,0,2-.69,2,2,0,0,0,.49-1.39Z"/><path class="cls-2" d="M81.19,42.61A32.19,32.19,0,0,0,78.4,39.3l-.23-.24a29,29,0,0,0-11.12-7L66.81,32a.59.59,0,0,1-.4-.48.6.6,0,0,1,.26-.57l.2-.14a16.61,16.61,0,1,0-18.8,0l.21.14A.6.6,0,0,1,48.14,32l-.24.09a29,29,0,0,0-11.12,7l-.21.22s-1.87,2.09-3.31,4.06a29.07,29.07,0,0,0-5,14.48l.17,2.69c.65,3.26,5.33,3.53,5.38,3.53H81.76a4.76,4.76,0,0,0,4.7-3.53l.2-2.69A29,29,0,0,0,81.19,42.61ZM44.1,17.12A13.38,13.38,0,1,1,57.47,30.49,13.39,13.39,0,0,1,44.1,17.12ZM83,60.33A2.55,2.55,0,0,1,81,61H33.92a2.55,2.55,0,0,1-2-.69,2,2,0,0,1-.49-1.39v-.12a26,26,0,0,1,52,0v.12A2,2,0,0,1,83,60.33Z"/><path class="cls-2" d="M114.48,55.25a21.59,21.59,0,0,0-13.66-19.37.58.58,0,0,1-.37-.46.59.59,0,0,1,.21-.56,12.4,12.4,0,1,0-15.44,0,.6.6,0,0,1,.22.56.58.58,0,0,1-.37.46,21.64,21.64,0,0,0-5.86,3.47.61.61,0,0,1-.81-.05,32.19,32.19,0,0,1,2.79,3.31.6.6,0,0,1,.1-.81,18.32,18.32,0,0,1,30,13.49v.53a2,2,0,0,1-.49,1.31,2.59,2.59,0,0,1-2,.69H86.66l-.2,2.69h22.6A5.52,5.52,0,0,0,113.21,59a4.84,4.84,0,0,0,1.28-3.19h0ZM92.94,34.4a9.25,9.25,0,1,1,9.25-9.25A9.25,9.25,0,0,1,92.94,34.4Z"/></g></g></svg>