<svg xmlns="http://www.w3.org/2000/svg" viewBox="0 0 60.6 60.6"><defs><style>.cls-1{fill:#999;}</style></defs><title>setting-inactive-icon</title><g id="Layer_2" data-name="Layer 2"><g id="Layer_1-2" data-name="Layer 1"><path class="cls-1" d="M25.69,60.6a4.7,4.7,0,0,1-4.57-3.67l-.46-2.13a.57.57,0,0,0-.34-.4.54.54,0,0,0-.22,0,.61.61,0,0,0-.31.09L18,55.62a4.73,4.73,0,0,1-2.53.74A4.6,4.6,0,0,1,12.14,55L5.61,48.47A4.7,4.7,0,0,1,5,42.64l1.17-1.83a.57.57,0,0,0-.36-.87l-2.12-.46A4.69,4.69,0,0,1,0,34.92V25.69a4.71,4.71,0,0,1,3.68-4.57l2.12-.46a.56.56,0,0,0,.36-.86L5,18a4.72,4.72,0,0,1,.63-5.83l6.53-6.53A4.65,4.65,0,0,1,18,5L19.8,6.16a.55.55,0,0,0,.3.09.54.54,0,0,0,.22,0,.57.57,0,0,0,.34-.41l.46-2.12A4.7,4.7,0,0,1,25.69,0h9.23a4.69,4.69,0,0,1,4.56,3.68l.46,2.12a.56.56,0,0,0,.56.45.56.56,0,0,0,.31-.09L42.64,5a4.62,4.62,0,0,1,2.52-.75,4.68,4.68,0,0,1,3.31,1.37L55,12.14A4.7,4.7,0,0,1,55.62,18L54.44,19.8a.56.56,0,0,0,0,.52.55.55,0,0,0,.4.34l2.13.46a4.7,4.7,0,0,1,3.67,4.57v9.23a4.68,4.68,0,0,1-3.67,4.56l-2.13.46a.57.57,0,0,0-.4.34.58.58,0,0,0,0,.53l1.18,1.83A4.69,4.69,0,0,1,55,48.46L48.47,55a4.64,4.64,0,0,1-3.31,1.37,4.69,4.69,0,0,1-2.52-.74l-1.83-1.18a.56.56,0,0,0-.31-.09.59.59,0,0,0-.22,0,.57.57,0,0,0-.34.4l-.46,2.13a4.68,4.68,0,0,1-4.56,3.67ZM20.2,51.78a2.77,2.77,0,0,1,1.1.22A2.86,2.86,0,0,1,23,54l.52,2.37a2.2,2.2,0,0,0,2.15,1.73h9.23a2.22,2.22,0,0,0,2.15-1.73L37.58,54a2.85,2.85,0,0,1,1.69-2,2.93,2.93,0,0,1,1.13-.23,2.77,2.77,0,0,1,1.53.45l2,1.31a2.21,2.21,0,0,0,2.75-.29l6.53-6.53A2.22,2.22,0,0,0,53.54,44l-1.31-2A2.89,2.89,0,0,1,54,37.58l2.37-.51a2.21,2.21,0,0,0,1.73-2.15V25.69a2.21,2.21,0,0,0-1.73-2.15L54,23a2.87,2.87,0,0,1-1.8-4.34l1.31-2.05a2.2,2.2,0,0,0-.3-2.74L46.72,7.36a2.18,2.18,0,0,0-1.56-.64A2.28,2.28,0,0,0,44,7.06l-2,1.32a2.85,2.85,0,0,1-1.53.45h0a3,3,0,0,1-1.09-.22,2.87,2.87,0,0,1-1.73-2L37.07,4.2a2.21,2.21,0,0,0-2.15-1.73H25.69A2.21,2.21,0,0,0,23.54,4.2L23,6.58a2.84,2.84,0,0,1-1.69,2,2.87,2.87,0,0,1-1.13.24,2.82,2.82,0,0,1-1.52-.45L16.63,7.06a2.26,2.26,0,0,0-1.19-.34,2.14,2.14,0,0,0-1.55.64L7.36,13.89a2.21,2.21,0,0,0-.3,2.74l1.32,2.05A2.88,2.88,0,0,1,6.58,23l-2.38.52a2.21,2.21,0,0,0-1.73,2.15v9.23A2.21,2.21,0,0,0,4.2,37.07l2.38.51a2.84,2.84,0,0,1,2,1.69,2.87,2.87,0,0,1-.21,2.66L7.06,44a2.22,2.22,0,0,0,.3,2.75l6.53,6.53a2.2,2.2,0,0,0,2.74.29l2.05-1.31A2.73,2.73,0,0,1,20.2,51.78ZM30.3,39.51a9.21,9.21,0,1,1,9.21-9.21A9.22,9.22,0,0,1,30.3,39.51Zm0-15.94A6.74,6.74,0,1,0,37,30.3,6.74,6.74,0,0,0,30.3,23.57Z"/></g></g></svg>