<svg xmlns="http://www.w3.org/2000/svg" viewBox="0 0 92.45 102.05"><defs><style>.cls-1{fill:#fff;}</style></defs><title>status-saya-active-icon</title><g id="Layer_2" data-name="Layer 2"><g id="Layer_1-2" data-name="Layer 1"><path class="cls-1" d="M92.45,92.05A46.37,46.37,0,0,0,61.37,50.59l-2.83-1a.3.3,0,0,1-.19-.23.3.3,0,0,1,.12-.26l2.47-1.7a26,26,0,1,0-29.42,0L34,49.13a.27.27,0,0,1,.12.26.3.3,0,0,1-.19.23l-2.82,1A46.35,46.35,0,0,0,0,92.08a8.52,8.52,0,0,0,2.67,6.5c3.34,3.1,8.84,3.47,11.21,3.47.65,0,1.07,0,1.13,0H77.77c5.46,0,9.51-1.32,12-3.92a8.92,8.92,0,0,0,2.63-6ZM88.51,92v.11c0,.24-.15,5.88-11,5.88H14.93c-10.84,0-11-5.64-11-5.86C5.12,70,24.09,52,46.23,52S87.26,69.92,88.51,92ZM46.23,48.07A22.07,22.07,0,1,1,68.29,26,22.09,22.09,0,0,1,46.23,48.07Z"/></g></g></svg>