<svg xmlns="http://www.w3.org/2000/svg" viewBox="0 0 110.43 100.77"><defs><style>.cls-1{fill:#1a2651;}</style></defs><title>sunday-school-icon</title><g id="Layer_2" data-name="Layer 2"><g id="Layer_1-2" data-name="Layer 1"><path class="cls-1" d="M42.8,55.31a1.72,1.72,0,0,1-1.55-1.05,5.51,5.51,0,0,0-10,0,1.7,1.7,0,0,1-1.54,1.05h-.89a1.65,1.65,0,0,1-1.39-.74,1.62,1.62,0,0,1-.19-1.52,9.67,9.67,0,0,1,18,0,1.62,1.62,0,0,1-.18,1.52,1.67,1.67,0,0,1-1.39.74Z"/><path class="cls-1" d="M80.75,55.31a1.72,1.72,0,0,1-1.55-1.05,5.51,5.51,0,0,0-10,0,1.7,1.7,0,0,1-1.54,1.05h-.89a1.65,1.65,0,0,1-1.39-.74,1.62,1.62,0,0,1-.19-1.52,9.67,9.67,0,0,1,18,0A1.62,1.62,0,0,1,83,54.57a1.67,1.67,0,0,1-1.39.74Z"/><path class="cls-1" d="M55.21,81.28a17.34,17.34,0,0,1-13-5.86A1.74,1.74,0,0,1,41.85,74a1.63,1.63,0,0,1,.79-1.17l.72-.43a1.64,1.64,0,0,1,.83-.22,1.72,1.72,0,0,1,1.28.58,13.1,13.1,0,0,0,19.48,0,1.75,1.75,0,0,1,1.28-.59,1.62,1.62,0,0,1,.83.23l.72.43a1.61,1.61,0,0,1,.8,1.17,1.71,1.71,0,0,1-.42,1.41A17.31,17.31,0,0,1,55.21,81.28Z"/><path class="cls-1" d="M55.21,100.77a45.41,45.41,0,0,1-43.34-31.5l-.23-.69-.71-.14a13.46,13.46,0,0,1,0-26.45l.71-.14.23-.69A45.36,45.36,0,0,1,33.29,15.29l2.46-1.35-2.66-.88a15.15,15.15,0,0,1-10-11A1.7,1.7,0,0,1,23.46.63,1.67,1.67,0,0,1,24.77,0h.83a1.73,1.73,0,0,1,1.65,1.38A10.87,10.87,0,0,0,37.82,9.66h4.52l-1.44-2a14.8,14.8,0,0,1-2.59-5.64A1.7,1.7,0,0,1,38.64.63,1.67,1.67,0,0,1,40,0h.83a1.73,1.73,0,0,1,1.65,1.38A10.87,10.87,0,0,0,53,9.66h2.21a45.43,45.43,0,0,1,43.35,31.5l.22.69.72.14a13.47,13.47,0,0,1,0,26.45l-.72.14-.22.69A45.43,45.43,0,0,1,55.21,100.77ZM13.56,45.91a9.69,9.69,0,0,0-6.27,2.34A9.27,9.27,0,0,0,4.2,56a9.52,9.52,0,0,0,9.35,8.54,1.68,1.68,0,0,1,1.62,1.23l.08.3a41.41,41.41,0,0,0,79.92,0l.08-.3a1.69,1.69,0,0,1,1.58-1.23h.31a9,9,0,0,0,8.27-5.27,9.46,9.46,0,0,0-2.24-11,9.66,9.66,0,0,0-6.3-2.38,1.7,1.7,0,0,1-1.62-1.23l-.08-.3A41.15,41.15,0,0,0,71.38,17.12l-3-1.29,1.44,3A16.23,16.23,0,0,1,56,42.1l-.76,0a16.3,16.3,0,0,1-15.9-12.94,1.73,1.73,0,0,1,.35-1.46A1.63,1.63,0,0,1,41,27.11h.84a1.69,1.69,0,0,1,1.64,1.35A12.12,12.12,0,0,0,55.21,38a12.08,12.08,0,0,0,12.06-12.6A12.38,12.38,0,0,0,54.88,13.82,41.6,41.6,0,0,0,15.25,44.38l-.08.29a1.67,1.67,0,0,1-1.58,1.24Z"/></g></g></svg>