<svg xmlns="http://www.w3.org/2000/svg" viewBox="0 0 78 63.38"><defs><style>.cls-1{fill:#1a2651;}</style></defs><title>tw-share-icon</title><g id="Layer_2" data-name="Layer 2"><g id="Layer_1-2" data-name="Layer 1"><path class="cls-1" d="M69.93,15.84a45.31,45.31,0,0,1-4.8,22.86A44.57,44.57,0,0,1,48.9,56.44a44.2,44.2,0,0,1-24.37,6.94A44.33,44.33,0,0,1,0,56.21c1.12.11,2.39.16,3.81.16a31.54,31.54,0,0,0,19.8-6.71,15.41,15.41,0,0,1-9.21-3.27,16.77,16.77,0,0,1-5.72-8,12.5,12.5,0,0,0,3.05.31A19.28,19.28,0,0,0,16,38.24a16,16,0,0,1-6.55-3A16.44,16.44,0,0,1,4.8,29.71a15.22,15.22,0,0,1-1.75-7.16v-.31a14.63,14.63,0,0,0,7.31,2A15,15,0,0,1,3.2,11,15.5,15.5,0,0,1,5.48,2.89,44.22,44.22,0,0,0,20,14.78a44.3,44.3,0,0,0,18.36,4.87,20.66,20.66,0,0,1-.3-3.65A15.51,15.51,0,0,1,42.73,4.72,15.17,15.17,0,0,1,53.93,0,15.45,15.45,0,0,1,65.66,5,32.48,32.48,0,0,0,75.87,1.22a15.87,15.87,0,0,1-7,8.83A31.87,31.87,0,0,0,78,7.46,31.77,31.77,0,0,1,69.93,15.84Z"/></g></g></svg>